<?xml version="1.0" encoding="utf-8"?>
<!-- Svg Vector Icons : http://www.onlinewebfonts.com/icon -->
<!DOCTYPE svg PUBLIC "-//W3C//DTD SVG 1.1//EN" "http://www.w3.org/Graphics/SVG/1.1/DTD/svg11.dtd">
<svg version="1.1" xmlns="http://www.w3.org/2000/svg" xmlns:xlink="http://www.w3.org/1999/xlink" x="0px" y="0px" viewBox="0 0 1000 1000" enable-background="new 0 0 1000 1000" xml:space="preserve">
<g><path d="M495.5,240C489.8,124.8,582.9,23,696,10C710.3,123.4,614.6,247.5,495.5,240z"/><path d="M167.1,336.4C224.5,267.7,324.2,230,410.5,263c49,18.7,102.4,46,152.8,13.8c105-53.3,241.8-28.9,314.4,66.3c-68,41.9-118.4,117-107.7,199.4c-2.2,84.5,59.6,153.7,130.1,191.7c-34.6,90.2-82.2,181.7-161.8,239.9c-77.5,45.6-154.7-26-234.3-26.1c-66.8,16.7-143.7,71-209.2,22.6C190.5,883.5,129,752.2,106.8,619.9C89.5,522.9,103.4,414.6,167.1,336.4L167.1,336.4z"/></g>
</svg>